M48
;DRILL file {KiCad (2017-02-01 revision d1f8dbb)-4.0} date Tue Apr 11 00:14:02 2017
;FORMAT={-:-/ absolute / inch / decimal}
FMAT,2
INCH,TZ
T1C0.025
T2C0.030
T3C0.031
T4C0.035
T5C0.039
T6C0.043
T7C0.051
%
G90
G05
M72
T1
X4.75Y-6.75
T2
X5.5Y-2.25
X5.65Y-2.25
X5.85Y-2.25
X6.Y-2.25
X7.6Y-2.95
X7.6Y-3.15
X7.6Y-3.6
X7.6Y-3.8
X7.6Y-4.25
X7.6Y-4.45
X7.6Y-4.9
X7.6Y-5.1
X7.6Y-5.55
X7.6Y-5.75
X7.6Y-6.2
X7.6Y-6.4
X7.6Y-6.85
X7.6Y-7.05
X7.6Y-7.5
X7.6Y-7.7
T3
X3.85Y-6.65
X3.85Y-6.75
X3.85Y-6.85
X3.85Y-6.95
X3.85Y-7.05
X3.85Y-7.15
X3.85Y-7.25
X3.85Y-7.35
X3.85Y-7.45
X3.85Y-7.55
X3.85Y-7.65
X3.85Y-7.75
X4.45Y-6.65
X4.45Y-6.75
X4.45Y-6.85
X4.45Y-6.95
X4.45Y-7.05
X4.45Y-7.15
X4.45Y-7.25
X4.45Y-7.35
X4.45Y-7.45
X4.45Y-7.55
X4.45Y-7.65
X4.45Y-7.75
X5.6Y-2.85
X5.6Y-2.95
X5.6Y-3.05
X5.6Y-3.15
X5.6Y-3.5
X5.6Y-3.6
X5.6Y-3.7
X5.6Y-3.8
X5.6Y-4.15
X5.6Y-4.25
X5.6Y-4.35
X5.6Y-4.45
X5.6Y-4.8
X5.6Y-4.9
X5.6Y-5.
X5.6Y-5.1
X5.6Y-5.45
X5.6Y-5.55
X5.6Y-5.65
X5.6Y-5.75
X5.6Y-6.1
X5.6Y-6.2
X5.6Y-6.3
X5.6Y-6.4
X5.6Y-6.75
X5.6Y-6.85
X5.6Y-6.95
X5.6Y-7.05
X5.6Y-7.4
X5.6Y-7.5
X5.6Y-7.6
X5.6Y-7.7
X5.9Y-2.85
X5.9Y-2.95
X5.9Y-3.05
X5.9Y-3.15
X5.9Y-3.5
X5.9Y-3.6
X5.9Y-3.7
X5.9Y-3.8
X5.9Y-4.15
X5.9Y-4.25
X5.9Y-4.35
X5.9Y-4.45
X5.9Y-4.8
X5.9Y-4.9
X5.9Y-5.
X5.9Y-5.1
X5.9Y-5.45
X5.9Y-5.55
X5.9Y-5.65
X5.9Y-5.75
X5.9Y-6.1
X5.9Y-6.2
X5.9Y-6.3
X5.9Y-6.4
X5.9Y-6.75
X5.9Y-6.85
X5.9Y-6.95
X5.9Y-7.05
X5.9Y-7.4
X5.9Y-7.5
X5.9Y-7.6
X5.9Y-7.7
X6.15Y-2.65
X6.15Y-3.05
X6.15Y-3.3
X6.15Y-3.7
X6.15Y-3.95
X6.15Y-4.35
X6.15Y-4.6
X6.15Y-5.
X6.15Y-5.25
X6.15Y-5.65
X6.15Y-5.9
X6.15Y-6.3
X6.15Y-6.55
X6.15Y-6.95
X6.15Y-7.2
X6.15Y-7.6
T4
X7.35Y-2.85
X7.35Y-3.25
X7.35Y-3.5
X7.35Y-3.9
X7.35Y-4.15
X7.35Y-4.55
X7.35Y-4.8
X7.35Y-5.2
X7.35Y-5.45
X7.35Y-5.85
X7.35Y-6.1
X7.35Y-6.5
X7.35Y-6.75
X7.35Y-7.15
X7.35Y-7.4
X7.35Y-7.8
T5
X6.4Y-2.95
X6.4Y-3.05
X6.4Y-3.15
X6.4Y-3.6
X6.4Y-3.7
X6.4Y-3.8
X6.4Y-4.25
X6.4Y-4.35
X6.4Y-4.45
X6.4Y-4.9
X6.4Y-5.
X6.4Y-5.1
X6.4Y-5.55
X6.4Y-5.65
X6.4Y-5.75
X6.4Y-6.2
X6.4Y-6.3
X6.4Y-6.4
X6.4Y-6.85
X6.4Y-6.95
X6.4Y-7.05
X6.4Y-7.5
X6.4Y-7.6
X6.4Y-7.7
T6
X3.65Y-2.8
X3.65Y-2.9
X3.65Y-3.
X3.65Y-3.1
X3.65Y-3.2
X3.65Y-3.3
X3.65Y-3.4
X3.65Y-3.5
X3.65Y-3.6
X3.65Y-3.7
X3.65Y-3.8
X3.65Y-3.9
X3.65Y-4.
X3.65Y-4.1
X3.75Y-4.1
X3.85Y-4.1
X3.95Y-3.4
X3.95Y-3.5
X3.95Y-3.6
X3.95Y-3.7
X3.95Y-3.8
X3.95Y-3.9
X3.95Y-4.
X3.95Y-4.1
X4.05Y-3.4
X4.05Y-3.5
X4.05Y-3.6
X4.05Y-3.7
X4.05Y-3.8
X4.05Y-3.9
X4.05Y-4.
X4.05Y-4.1
X4.15Y-2.9
X4.15Y-3.1
X4.15Y-3.2
X4.15Y-3.3
X4.15Y-4.1
X4.25Y-2.8
X4.25Y-2.9
X4.25Y-3.
X4.25Y-3.1
X4.25Y-3.2
X4.25Y-3.3
X4.25Y-3.4
X4.25Y-3.5
X4.25Y-3.6
X4.25Y-3.7
X4.25Y-3.8
X4.25Y-3.9
X4.25Y-4.
X4.25Y-4.1
T7
X2.8Y-3.05
X2.8Y-3.4437
X2.8Y-3.8
X2.8Y-4.1937
X2.8Y-4.55
X2.8Y-4.9437
X2.8Y-5.3
X2.8Y-5.6937
X2.8Y-6.05
X2.8Y-6.4437
X2.8Y-6.8
X2.8Y-7.1937
X2.9969Y-3.2469
X2.9969Y-3.9969
X2.9969Y-4.7469
X2.9969Y-5.4969
X2.9969Y-6.2469
X2.9969Y-6.9969
T0
M30
