G04 #@! TF.FileFunction,Copper,L2,Bot,Signal*
%FSLAX46Y46*%
G04 Gerber Fmt 4.6, Leading zero omitted, Abs format (unit mm)*
G04 Created by KiCad (PCBNEW (2017-02-01 revision d1f8dbb)-4.0) date Tue Apr 11 00:13:50 2017*
%MOMM*%
%LPD*%
G01*
G04 APERTURE LIST*
%ADD10C,0.150000*%
%ADD11R,1.800000X1.800000*%
%ADD12O,1.800000X1.800000*%
%ADD13R,1.600000X1.600000*%
%ADD14O,1.600000X1.600000*%
%ADD15C,1.600000*%
%ADD16C,2.340000*%
%ADD17R,2.540000X7.620000*%
%ADD18R,2.540000X2.540000*%
%ADD19C,2.540000*%
%ADD20C,0.889000*%
%ADD21C,0.254000*%
G04 APERTURE END LIST*
D10*
D11*
X162560000Y-74930000D03*
D12*
X162560000Y-77470000D03*
X162560000Y-80010000D03*
D11*
X162560000Y-173990000D03*
D12*
X162560000Y-176530000D03*
X162560000Y-179070000D03*
D13*
X113030000Y-196850000D03*
D14*
X97790000Y-168910000D03*
X113030000Y-194310000D03*
X97790000Y-171450000D03*
X113030000Y-191770000D03*
X97790000Y-173990000D03*
X113030000Y-189230000D03*
X97790000Y-176530000D03*
X113030000Y-186690000D03*
X97790000Y-179070000D03*
X113030000Y-184150000D03*
X97790000Y-181610000D03*
X113030000Y-181610000D03*
X97790000Y-184150000D03*
X113030000Y-179070000D03*
X97790000Y-186690000D03*
X113030000Y-176530000D03*
X97790000Y-189230000D03*
X113030000Y-173990000D03*
X97790000Y-191770000D03*
X113030000Y-171450000D03*
X97790000Y-194310000D03*
X113030000Y-168910000D03*
X97790000Y-196850000D03*
D13*
X142240000Y-187960000D03*
D14*
X149860000Y-195580000D03*
X142240000Y-190500000D03*
X149860000Y-193040000D03*
X142240000Y-193040000D03*
X149860000Y-190500000D03*
X142240000Y-195580000D03*
X149860000Y-187960000D03*
D15*
X100330000Y-104140000D03*
X102870000Y-104140000D03*
X105410000Y-104140000D03*
X107950000Y-104140000D03*
X97790000Y-104140000D03*
X95250000Y-104140000D03*
X92710000Y-104140000D03*
X107950000Y-101600000D03*
X107950000Y-99060000D03*
X107950000Y-96520000D03*
X107950000Y-93980000D03*
X107950000Y-91440000D03*
X107950000Y-88900000D03*
X107950000Y-86360000D03*
X107950000Y-83820000D03*
X107950000Y-81280000D03*
X107950000Y-78740000D03*
X107950000Y-76200000D03*
X107950000Y-73660000D03*
X107950000Y-71120000D03*
X105410000Y-73660000D03*
X105410000Y-78740000D03*
X105410000Y-81280000D03*
X105410000Y-83820000D03*
X92710000Y-101600000D03*
X92710000Y-99060000D03*
X92710000Y-96520000D03*
X92710000Y-93980000D03*
X92710000Y-91440000D03*
X92710000Y-88900000D03*
X92710000Y-86360000D03*
X92710000Y-83820000D03*
X92710000Y-81280000D03*
X92710000Y-78740000D03*
X92710000Y-76200000D03*
X92710000Y-73660000D03*
D13*
X92710000Y-71120000D03*
D15*
X100330000Y-86360000D03*
X100330000Y-88900000D03*
X100330000Y-91440000D03*
X100330000Y-93980000D03*
X100330000Y-96520000D03*
X100330000Y-99060000D03*
X100330000Y-101600000D03*
X102870000Y-101600000D03*
X102870000Y-99060000D03*
X102870000Y-96520000D03*
X102870000Y-93980000D03*
X102870000Y-91440000D03*
X102870000Y-88900000D03*
X102870000Y-86360000D03*
D13*
X142240000Y-171450000D03*
D14*
X149860000Y-179070000D03*
X142240000Y-173990000D03*
X149860000Y-176530000D03*
X142240000Y-176530000D03*
X149860000Y-173990000D03*
X142240000Y-179070000D03*
X149860000Y-171450000D03*
D13*
X142240000Y-154940000D03*
D14*
X149860000Y-162560000D03*
X142240000Y-157480000D03*
X149860000Y-160020000D03*
X142240000Y-160020000D03*
X149860000Y-157480000D03*
X142240000Y-162560000D03*
X149860000Y-154940000D03*
D13*
X142240000Y-138430000D03*
D14*
X149860000Y-146050000D03*
X142240000Y-140970000D03*
X149860000Y-143510000D03*
X142240000Y-143510000D03*
X149860000Y-140970000D03*
X142240000Y-146050000D03*
X149860000Y-138430000D03*
D13*
X142240000Y-72390000D03*
D14*
X149860000Y-80010000D03*
X142240000Y-74930000D03*
X149860000Y-77470000D03*
X142240000Y-77470000D03*
X149860000Y-74930000D03*
X142240000Y-80010000D03*
X149860000Y-72390000D03*
D13*
X142240000Y-88900000D03*
D14*
X149860000Y-96520000D03*
X142240000Y-91440000D03*
X149860000Y-93980000D03*
X142240000Y-93980000D03*
X149860000Y-91440000D03*
X142240000Y-96520000D03*
X149860000Y-88900000D03*
D13*
X142240000Y-105410000D03*
D14*
X149860000Y-113030000D03*
X142240000Y-107950000D03*
X149860000Y-110490000D03*
X142240000Y-110490000D03*
X149860000Y-107950000D03*
X142240000Y-113030000D03*
X149860000Y-105410000D03*
D13*
X142240000Y-121920000D03*
D14*
X149860000Y-129540000D03*
X142240000Y-124460000D03*
X149860000Y-127000000D03*
X142240000Y-127000000D03*
X149860000Y-124460000D03*
X142240000Y-129540000D03*
X149860000Y-121920000D03*
D16*
X71120000Y-87470000D03*
X76120000Y-82470000D03*
X71120000Y-77470000D03*
X71120000Y-106520000D03*
X76120000Y-101520000D03*
X71120000Y-96520000D03*
X71120000Y-125570000D03*
X76120000Y-120570000D03*
X71120000Y-115570000D03*
X71120000Y-182720000D03*
X76120000Y-177720000D03*
X71120000Y-172720000D03*
X71120000Y-144620000D03*
X76120000Y-139620000D03*
X71120000Y-134620000D03*
X71120000Y-163670000D03*
X76120000Y-158670000D03*
X71120000Y-153670000D03*
D17*
X152400000Y-57150000D03*
X143510000Y-57150000D03*
X139700000Y-57150000D03*
X148590000Y-57150000D03*
D11*
X186690000Y-198120000D03*
D12*
X186690000Y-187960000D03*
D11*
X186690000Y-181610000D03*
D12*
X186690000Y-171450000D03*
D11*
X186690000Y-165100000D03*
D12*
X186690000Y-154940000D03*
D11*
X186690000Y-148590000D03*
D12*
X186690000Y-138430000D03*
D11*
X186690000Y-82550000D03*
D12*
X186690000Y-72390000D03*
D11*
X186690000Y-99060000D03*
D12*
X186690000Y-88900000D03*
D11*
X186690000Y-115570000D03*
D12*
X186690000Y-105410000D03*
D15*
X156210000Y-182880000D03*
D14*
X156210000Y-193040000D03*
D15*
X156210000Y-166370000D03*
D14*
X156210000Y-176530000D03*
D15*
X156210000Y-149860000D03*
D14*
X156210000Y-160020000D03*
D15*
X156210000Y-100330000D03*
D14*
X156210000Y-110490000D03*
D15*
X156210000Y-116840000D03*
D14*
X156210000Y-127000000D03*
D15*
X156210000Y-133350000D03*
D14*
X156210000Y-143510000D03*
D15*
X156210000Y-67310000D03*
D14*
X156210000Y-77470000D03*
D15*
X156210000Y-83820000D03*
D14*
X156210000Y-93980000D03*
D18*
X193040000Y-195580000D03*
D19*
X193040000Y-190500000D03*
D18*
X193040000Y-179070000D03*
D19*
X193040000Y-173990000D03*
D18*
X193040000Y-162560000D03*
D19*
X193040000Y-157480000D03*
D18*
X193040000Y-146050000D03*
D19*
X193040000Y-140970000D03*
D18*
X193040000Y-80010000D03*
D19*
X193040000Y-74930000D03*
D18*
X193040000Y-96520000D03*
D19*
X193040000Y-91440000D03*
D18*
X193040000Y-113030000D03*
D19*
X193040000Y-107950000D03*
D18*
X193040000Y-129540000D03*
D19*
X193040000Y-124460000D03*
D11*
X186690000Y-132080000D03*
D12*
X186690000Y-121920000D03*
D11*
X162560000Y-190500000D03*
D12*
X162560000Y-193040000D03*
X162560000Y-195580000D03*
D11*
X162560000Y-157480000D03*
D12*
X162560000Y-160020000D03*
X162560000Y-162560000D03*
D11*
X162560000Y-140970000D03*
D12*
X162560000Y-143510000D03*
X162560000Y-146050000D03*
D11*
X162560000Y-91440000D03*
D12*
X162560000Y-93980000D03*
X162560000Y-96520000D03*
D11*
X162560000Y-107950000D03*
D12*
X162560000Y-110490000D03*
X162560000Y-113030000D03*
D11*
X162560000Y-124460000D03*
D12*
X162560000Y-127000000D03*
X162560000Y-129540000D03*
D20*
X120650000Y-171450000D03*
D21*
X162560000Y-96520000D02*
X152400000Y-96520000D01*
X162560000Y-80010000D02*
X152400000Y-80010000D01*
X152400000Y-80010000D02*
X152400000Y-64770000D01*
X152400000Y-96520000D02*
X152400000Y-80010000D01*
X152400000Y-80010000D02*
X149860000Y-80010000D01*
X152400000Y-113030000D02*
X152400000Y-96520000D01*
X152400000Y-96520000D02*
X149860000Y-96520000D01*
X148590000Y-57150000D02*
X148590000Y-64770000D01*
X148590000Y-64770000D02*
X152400000Y-64770000D01*
X152400000Y-64770000D02*
X152400000Y-57150000D01*
X162560000Y-146050000D02*
X152400000Y-146050000D01*
X162560000Y-129540000D02*
X152400000Y-129540000D01*
X162560000Y-113030000D02*
X152400000Y-113030000D01*
X152400000Y-129540000D02*
X152400000Y-113030000D01*
X152400000Y-113030000D02*
X149860000Y-113030000D01*
X152400000Y-146050000D02*
X152400000Y-129540000D01*
X152400000Y-129540000D02*
X149860000Y-129540000D01*
X152400000Y-162560000D02*
X152400000Y-146050000D01*
X152400000Y-146050000D02*
X149860000Y-146050000D01*
X152400000Y-195580000D02*
X152400000Y-199390000D01*
X105410000Y-176530000D02*
X113030000Y-168910000D01*
X105410000Y-198120000D02*
X105410000Y-176530000D01*
X111760000Y-204470000D02*
X105410000Y-198120000D01*
X147320000Y-204470000D02*
X111760000Y-204470000D01*
X152400000Y-199390000D02*
X147320000Y-204470000D01*
X152400000Y-195580000D02*
X152400000Y-179070000D01*
X152400000Y-179070000D02*
X152400000Y-162560000D01*
X162560000Y-162560000D02*
X152400000Y-162560000D01*
X152400000Y-162560000D02*
X149860000Y-162560000D01*
X162560000Y-179070000D02*
X152400000Y-179070000D01*
X152400000Y-179070000D02*
X149860000Y-179070000D01*
X162560000Y-195580000D02*
X158750000Y-195580000D01*
X158750000Y-195580000D02*
X152400000Y-195580000D01*
X149860000Y-195580000D02*
X151130000Y-195580000D01*
X152400000Y-195580000D02*
X151130000Y-195580000D01*
X156210000Y-182880000D02*
X158750000Y-182880000D01*
X162560000Y-186690000D02*
X162560000Y-190500000D01*
X158750000Y-182880000D02*
X162560000Y-186690000D01*
X156210000Y-166370000D02*
X158750000Y-166370000D01*
X162560000Y-170180000D02*
X162560000Y-173990000D01*
X158750000Y-166370000D02*
X162560000Y-170180000D01*
X156210000Y-149860000D02*
X158750000Y-149860000D01*
X162560000Y-153670000D02*
X162560000Y-157480000D01*
X158750000Y-149860000D02*
X162560000Y-153670000D01*
X186690000Y-187960000D02*
X190500000Y-187960000D01*
X190500000Y-187960000D02*
X193040000Y-190500000D01*
X162560000Y-193040000D02*
X171450000Y-193040000D01*
X176530000Y-187960000D02*
X186690000Y-187960000D01*
X171450000Y-193040000D02*
X176530000Y-187960000D01*
X186690000Y-171450000D02*
X190500000Y-171450000D01*
X190500000Y-171450000D02*
X193040000Y-173990000D01*
X162560000Y-176530000D02*
X171450000Y-176530000D01*
X176530000Y-171450000D02*
X186690000Y-171450000D01*
X171450000Y-176530000D02*
X176530000Y-171450000D01*
X186690000Y-154940000D02*
X190500000Y-154940000D01*
X190500000Y-154940000D02*
X193040000Y-157480000D01*
X162560000Y-160020000D02*
X171450000Y-160020000D01*
X176530000Y-154940000D02*
X186690000Y-154940000D01*
X171450000Y-160020000D02*
X176530000Y-154940000D01*
X186690000Y-138430000D02*
X190500000Y-138430000D01*
X190500000Y-138430000D02*
X193040000Y-140970000D01*
X162560000Y-143510000D02*
X171450000Y-143510000D01*
X176530000Y-138430000D02*
X186690000Y-138430000D01*
X171450000Y-143510000D02*
X176530000Y-138430000D01*
X186690000Y-72390000D02*
X190500000Y-72390000D01*
X190500000Y-72390000D02*
X193040000Y-74930000D01*
X162560000Y-77470000D02*
X171450000Y-77470000D01*
X176530000Y-72390000D02*
X186690000Y-72390000D01*
X171450000Y-77470000D02*
X176530000Y-72390000D01*
X186690000Y-88900000D02*
X190500000Y-88900000D01*
X190500000Y-88900000D02*
X193040000Y-91440000D01*
X162560000Y-93980000D02*
X171450000Y-93980000D01*
X176530000Y-88900000D02*
X186690000Y-88900000D01*
X171450000Y-93980000D02*
X176530000Y-88900000D01*
X186690000Y-105410000D02*
X190500000Y-105410000D01*
X190500000Y-105410000D02*
X193040000Y-107950000D01*
X162560000Y-110490000D02*
X171450000Y-110490000D01*
X176530000Y-105410000D02*
X186690000Y-105410000D01*
X171450000Y-110490000D02*
X176530000Y-105410000D01*
X186690000Y-121920000D02*
X190500000Y-121920000D01*
X190500000Y-121920000D02*
X193040000Y-124460000D01*
X162560000Y-127000000D02*
X171450000Y-127000000D01*
X176530000Y-121920000D02*
X186690000Y-121920000D01*
X171450000Y-127000000D02*
X176530000Y-121920000D01*
X156210000Y-133350000D02*
X158750000Y-133350000D01*
X162560000Y-137160000D02*
X162560000Y-140970000D01*
X158750000Y-133350000D02*
X162560000Y-137160000D01*
X156210000Y-67310000D02*
X158750000Y-67310000D01*
X162560000Y-71120000D02*
X162560000Y-74930000D01*
X158750000Y-67310000D02*
X162560000Y-71120000D01*
X156210000Y-83820000D02*
X158750000Y-83820000D01*
X162560000Y-87630000D02*
X162560000Y-91440000D01*
X158750000Y-83820000D02*
X162560000Y-87630000D01*
X156210000Y-100330000D02*
X158750000Y-100330000D01*
X162560000Y-104140000D02*
X162560000Y-107950000D01*
X158750000Y-100330000D02*
X162560000Y-104140000D01*
X156210000Y-116840000D02*
X158750000Y-116840000D01*
X162560000Y-120650000D02*
X162560000Y-124460000D01*
X158750000Y-116840000D02*
X162560000Y-120650000D01*
X142240000Y-143510000D02*
X120650000Y-143510000D01*
X142240000Y-127000000D02*
X120650000Y-127000000D01*
X142240000Y-110490000D02*
X120650000Y-110490000D01*
X142240000Y-93980000D02*
X120650000Y-93980000D01*
X142240000Y-77470000D02*
X120650000Y-77470000D01*
X66040000Y-124460000D02*
X66040000Y-105410000D01*
X66040000Y-142240000D02*
X66040000Y-124460000D01*
X66040000Y-161290000D02*
X66040000Y-142240000D01*
X71120000Y-182720000D02*
X66200000Y-182720000D01*
X66040000Y-182560000D02*
X66040000Y-161290000D01*
X66200000Y-182720000D02*
X66040000Y-182560000D01*
X71120000Y-163670000D02*
X66200000Y-163670000D01*
X66040000Y-163510000D02*
X66040000Y-161290000D01*
X66200000Y-163670000D02*
X66040000Y-163510000D01*
X71120000Y-144620000D02*
X66200000Y-144620000D01*
X66200000Y-144620000D02*
X66040000Y-144460000D01*
X66040000Y-144460000D02*
X66040000Y-142240000D01*
X71120000Y-125570000D02*
X66200000Y-125570000D01*
X66200000Y-125570000D02*
X66040000Y-125410000D01*
X66040000Y-125410000D02*
X66040000Y-124460000D01*
X71120000Y-106520000D02*
X66200000Y-106520000D01*
X66200000Y-106520000D02*
X66040000Y-106360000D01*
X66040000Y-106360000D02*
X66040000Y-105410000D01*
X66040000Y-105410000D02*
X66040000Y-87630000D01*
X71120000Y-87470000D02*
X66040000Y-87470000D01*
X66040000Y-71120000D02*
X66040000Y-87630000D01*
X66040000Y-71120000D02*
X92710000Y-71120000D01*
X66040000Y-87470000D02*
X66040000Y-87630000D01*
X142240000Y-160020000D02*
X120650000Y-160020000D01*
X120650000Y-83820000D02*
X120650000Y-77470000D01*
X120650000Y-77470000D02*
X120650000Y-66040000D01*
X92710000Y-66040000D02*
X92710000Y-71120000D01*
X120650000Y-66040000D02*
X92710000Y-66040000D01*
X142240000Y-176530000D02*
X120650000Y-176530000D01*
X142240000Y-193040000D02*
X120650000Y-193040000D01*
X120650000Y-189230000D02*
X120650000Y-176530000D01*
X120650000Y-176530000D02*
X120650000Y-171450000D01*
X120650000Y-171450000D02*
X120650000Y-171450000D01*
X120650000Y-171450000D02*
X120650000Y-160020000D01*
X120650000Y-160020000D02*
X120650000Y-143510000D01*
X120650000Y-143510000D02*
X120650000Y-138430000D01*
X120650000Y-138430000D02*
X120650000Y-127000000D01*
X120650000Y-127000000D02*
X120650000Y-116840000D01*
X120650000Y-116840000D02*
X120650000Y-113030000D01*
X120650000Y-193040000D02*
X120650000Y-189230000D01*
X120650000Y-96520000D02*
X120650000Y-93980000D01*
X120650000Y-93980000D02*
X120650000Y-83820000D01*
X120650000Y-113030000D02*
X120650000Y-110490000D01*
X120650000Y-110490000D02*
X120650000Y-99060000D01*
X120650000Y-99060000D02*
X120650000Y-96520000D01*
X107950000Y-71120000D02*
X114300000Y-71120000D01*
X119380000Y-71120000D02*
X119380000Y-73660000D01*
X119380000Y-73660000D02*
X119380000Y-173990000D01*
X119380000Y-173990000D02*
X113030000Y-173990000D01*
X114300000Y-71120000D02*
X119380000Y-71120000D01*
X107950000Y-101600000D02*
X110490000Y-101600000D01*
X87630000Y-93980000D02*
X76120000Y-82470000D01*
X87630000Y-105410000D02*
X87630000Y-93980000D01*
X90170000Y-107950000D02*
X87630000Y-105410000D01*
X110490000Y-107950000D02*
X90170000Y-107950000D01*
X110490000Y-101600000D02*
X110490000Y-107950000D01*
X107950000Y-99060000D02*
X111760000Y-99060000D01*
X81200000Y-101520000D02*
X76120000Y-101520000D01*
X90170000Y-110490000D02*
X81200000Y-101520000D01*
X111760000Y-110490000D02*
X90170000Y-110490000D01*
X111760000Y-99060000D02*
X111760000Y-110490000D01*
X107950000Y-96520000D02*
X113030000Y-96520000D01*
X105490000Y-120570000D02*
X76120000Y-120570000D01*
X113030000Y-113030000D02*
X105490000Y-120570000D01*
X113030000Y-96520000D02*
X113030000Y-113030000D01*
X107950000Y-93980000D02*
X114300000Y-93980000D01*
X90250000Y-139620000D02*
X76120000Y-139620000D01*
X114300000Y-115570000D02*
X90250000Y-139620000D01*
X114300000Y-93980000D02*
X114300000Y-115570000D01*
X107950000Y-91440000D02*
X115570000Y-91440000D01*
X115570000Y-119380000D02*
X76280000Y-158670000D01*
X115570000Y-116840000D02*
X115570000Y-119380000D01*
X115570000Y-91440000D02*
X115570000Y-116840000D01*
X76280000Y-158670000D02*
X76120000Y-158670000D01*
X76120000Y-177720000D02*
X76280000Y-177720000D01*
X76280000Y-177720000D02*
X116840000Y-137160000D01*
X116840000Y-137160000D02*
X116840000Y-88900000D01*
X116840000Y-88900000D02*
X107950000Y-88900000D01*
M02*
